<svg xmlns="http://www.w3.org/2000/svg" viewBox="0 0 170 170">
  <path d="M155.3 94.6c-21.6-8.3-30 9.7-30 19 0 6.1 4.9 11 11 11s11-4.9 11-11c0-3-1-6.1-3.1-7.7 1.5-2.4 4.3-3.9 8.7-2.4 14 4.6 3.9 32.6-21.7 30.7-22.4-1.7-38.4-14.2-61.2-23.9 1.3-4 2.5-8 3.7-12.1 9.8-.3 20-2.5 30.3-7.2 7.7-3.5 10.4-10.6 7-16.7-2.1-3.7-6.3-5.8-10.5-5.4-7.5.8-11.6 8.2-9.2 14.8.4 1.1 1 2 1.6 2.9-4.4 1.9-10.2 3.1-16.8 3.5C80 77.2 83.8 64.7 87 54.2c16.4 2.3 32.3.5 44.1-12.6 10.4-11.6 7-28.5-3.4-34.4C113.6-1.1 92.3.4 78.8 22c-1 1.6-2.2 3.9-3.4 6.7-8.1-1.6-16.9-2.6-27.3-1.3-30.2 3.9-39.8 46.5-15.8 60.2 6.5 3.7 13.7 6.6 21.3 8.5-.8 2.8-1.5 5.4-2.2 7.9C24.6 98.2.6 108.8-.1 138c-.8 32.1 45.8 42.2 58.5 7.5 1.3-3.6 2.7-7.4 4-11.4 10.1 5.3 22 11.6 35.6 17.6 32.8 14.4 48.4 4.2 59-5.3 14.1-12.6 20.6-43.2-1.7-51.8zm-34.7-80.1c10.5 3 11 21.5-9.7 21-5.7-.1-10.9-1-16.2-2.2 6.8-15.4 14.6-22 25.9-18.8zM53.3 87.2c-19.9-6.3-27.8-16.7-21.9-28.9 4-8.2 14.6-14.1 36.2-8.4-4 12-8.1 25.8-11.6 38-.9-.2-1.8-.4-2.7-.7zm-27.7 64.2c-22.3 2-19.1-29.6 4.4-30.1 4-.1 9 1.5 15 4.1-3.2 9.4-8.8 25-19.4 26z"/>
</svg>
