<?xml version="1.0" encoding="UTF-8"?>
<svg width="90px" height="90px" viewBox="0 0 90 90" version="1.1" xmlns="http://www.w3.org/2000/svg" xmlns:xlink="http://www.w3.org/1999/xlink">
    <!-- Generator: Sketch 47.1 (45422) - http://www.bohemiancoding.com/sketch -->
    <title>np_gem_1024153_000000</title>
    <desc>Created with Sketch.</desc>
    <defs></defs>
    <g id="Design" stroke="none" stroke-width="1" fill="none" fill-rule="evenodd">
        <g id="np_gem_1024153_000000" fill-rule="nonzero" fill="#000000">
            <path d="M89.965,45.18 C89.976718,45.152656 89.976718,45.121406 89.984531,45.090156 C89.992344,45.058906 90.000156,45.031562 90.000156,45.000312 L90.000156,44.9925 C90.000156,44.965156 89.988437,44.937812 89.984531,44.906562 C89.976718,44.875312 89.976718,44.844062 89.965,44.812812 L89.965,44.808906 C89.941562,44.754218 89.910312,44.703436 89.867344,44.660466 C89.863437,44.65656 89.863437,44.65656 89.863437,44.652654 L45.336437,0.140654 C45.289561,0.093779 45.23878,0.062529 45.180187,0.035184 C45.17628,0.031278 45.168468,0.035184 45.164561,0.031278 C45.109874,0.011747 45.055191,2.8e-05 45.000501,2.8e-05 C44.945811,2.8e-05 44.895031,0.011747 44.844251,0.031278 C44.836439,0.035184 44.828626,0.031278 44.820813,0.035184 C44.76222,0.058622 44.707533,0.093778 44.664563,0.140654 L0.141563,44.663654 C0.137657,44.667561 0.137657,44.671467 0.13375,44.671467 C0.094688,44.714436 0.059532,44.765217 0.036094,44.815997 L0.036094,44.819903 C0.024376,44.851153 0.024376,44.878497 0.020469,44.909747 C0.012657,44.937091 0.004844,44.964435 0.004844,44.995685 L0.004844,45.003497 C0.004844,45.034747 0.016563,45.062091 0.020469,45.093341 C0.028282,45.124591 0.028282,45.155841 0.04,45.183185 C0.063438,45.241779 0.098594,45.292565 0.14156,45.335525 L44.66456,89.858525 C44.680186,89.87415 44.699717,89.881962 44.719248,89.893681 C44.734873,89.9054 44.750498,89.917119 44.770029,89.924931 C44.78956,89.93665 44.801279,89.952275 44.82081,89.960088 C44.879404,89.983525 44.938,89.995244 45.0005,89.995244 C45.059094,89.995244 45.12159,89.983525 45.18019,89.960088 C45.199721,89.952275 45.215346,89.93665 45.230971,89.924931 C45.250502,89.913212 45.262221,89.9054 45.281752,89.893681 C45.297377,89.881962 45.320814,89.87415 45.33644,89.858525 L89.86344,45.331525 C89.906409,45.288556 89.937659,45.237775 89.965,45.179185 L89.965,45.18 Z M58.328,57.184 C58.249875,53.8363 59.6366,49.3207 62.2538,45.442 C64.7929,48.5553 67.9647,50.9264 70.8476,52.0904 L58.328,57.184 Z M57.38659,57.309 C53.72249,57.184 48.83189,58.6684 44.69859,61.5434 C41.27279,58.9848 37.08139,57.2387 32.65159,57.4301 C32.843,53.0082 31.10079,48.8129 28.54609,45.3911 C31.41719,41.2622 32.89379,36.3677 32.77269,32.7031 C32.90941,32.707006 33.04222,32.718725 33.17894,32.718725 C36.79224,32.718725 41.47974,31.222625 45.45194,28.460925 C48.87774,31.019525 53.07304,32.765625 57.50294,32.574225 C57.31153,37.000025 59.05374,41.199225 61.61624,44.625225 C58.74904,48.754125 57.26464,53.644725 57.38574,57.309225 L57.38659,57.309 Z M57.21471,58.25041 L52.14441,70.70741 C50.96861,67.84411 48.61711,64.69181 45.52721,62.17221 C49.39051,59.57451 53.87491,58.18781 57.21521,58.25031 L57.21471,58.25041 Z M43.85971,62.15271 C41.15661,64.21521 38.87921,66.89881 37.61751,70.13321 L32.83631,58.37521 C36.82461,58.25021 40.67221,59.82831 43.85931,62.15251 L43.85971,62.15271 Z M31.71171,57.19961 L20.01671,52.44181 C23.22371,51.17621 25.88391,48.90271 27.93081,46.21131 C30.24721,49.39101 31.82531,53.22301 31.71201,57.19931 L31.71171,57.19961 Z M31.8328,32.75461 C31.930457,36.10621 30.5437,40.65301 27.9148,44.55961 C25.3562,41.41901 22.1414,39.03621 19.239,37.87991 L31.8328,32.75461 Z M32.78592,31.75071 L37.93822,19.08671 C39.08272,22.00861 41.47732,25.24291 44.64522,27.82501 C40.71942,30.47731 36.14132,31.86411 32.78622,31.75081 L32.78592,31.75071 Z M46.29792,27.85621 C48.94632,25.83671 51.19242,23.22731 52.46982,20.08671 L57.16512,31.63371 C53.23152,31.711836 49.44632,30.14541 46.29812,27.85641 L46.29792,27.85621 Z M58.45392,32.86791 L70.07492,37.59841 C66.89912,38.87181 64.25852,41.12181 62.22722,43.78981 C59.92642,40.62571 58.35612,36.82101 58.45382,32.86781 L58.45392,32.86791 Z M58.23908,31.76241 L53.54768,20.23141 L69.77068,36.45041 L58.23908,31.76241 Z M45.47708,27.23121 C41.95368,24.42651 39.35988,20.78201 38.47318,17.76641 L45.00048,1.72741 L51.93798,18.77441 C50.80128,22.23141 48.37548,25.08301 45.47708,27.23141 L45.47708,27.23121 Z M31.76208,31.76241 L19.57408,36.71941 L36.71908,19.57441 L31.76208,31.76241 Z M17.90708,38.41861 C20.91098,39.32095 24.52428,41.89911 27.30938,45.39911 C25.12968,48.34051 22.23128,50.80141 18.70778,51.91081 L1.72778,45.00061 L17.90708,38.41861 Z M31.76208,58.23861 L36.34408,69.50461 L20.49208,53.65661 L31.76208,58.23861 Z M44.68408,62.77771 C48.12158,65.51211 50.66848,69.04331 51.61378,72.01601 L45.00048,88.27401 L38.15278,71.43801 C39.25438,67.89111 41.72698,64.96921 44.68398,62.77781 L44.68408,62.77771 Z M58.23908,58.23861 L70.70808,53.16441 L53.16508,70.71141 L58.23908,58.23861 Z M72.16108,51.55501 C69.17668,50.62532 65.61028,48.07061 62.85248,44.60971 C65.01268,41.69171 67.88768,39.25031 71.37588,38.12531 L88.27388,45.00031 L72.16108,51.55501 Z M71.94624,37.33601 C71.926709,37.296947 71.91499,37.257884 71.879834,37.22663 L52.859834,18.20363 C52.855928,18.199724 52.848115,18.195817 52.840303,18.191911 C52.816865,18.168474 52.789521,18.156755 52.762178,18.137224 C52.734834,18.121599 52.711397,18.105974 52.684053,18.094255 L46.316853,2.461255 L87.539853,43.684255 L71.94624,37.33601 Z M37.63024,17.33201 C37.626334,17.335917 37.618522,17.335917 37.614615,17.339823 L17.423615,37.534823 C17.415802,37.542636 17.415802,37.550448 17.40799,37.558261 C17.392365,37.577792 17.380646,37.597323 17.365021,37.616855 L2.463021,43.683255 L43.682021,2.460255 L37.63024,17.33201 Z M18.26324,52.74601 C18.271052,52.757728 18.274959,52.769447 18.286677,52.77726 L37.263677,71.75726 L43.685577,87.53826 L2.462577,46.31526 L18.26324,52.74601 Z M52.32224,72.78901 C52.330053,72.78901 52.333959,72.78901 52.337866,72.785104 C52.435522,72.75776 52.509736,72.699167 52.572236,72.624944 C52.587862,72.613225 52.603486,72.609319 52.615205,72.5976 L72.744205,52.4686 C72.791079,52.421725 72.818423,52.35922 72.841861,52.29672 L87.540861,46.31622 L46.317861,87.53922 L52.32224,72.78901 Z" id="Shape"></path>
        </g>
    </g>
</svg>